<svg width="116" height="24" viewBox="0 0 116 24" fill="none" xmlns="http://www.w3.org/2000/svg">
<g clip-path="url(#clip0_193_8610)">
<path fill-rule="evenodd" clip-rule="evenodd" d="M13.2831 2.76647C14.9283 4.5511 15.8131 6.91002 15.7783 9.40788V9.40479C15.7061 14.4345 11.7478 18.5255 6.95671 18.5255H0.225529C0.0983075 18.5255 0.0346968 18.3619 0.12433 18.2631L3.40028 14.7463C3.45522 14.6877 3.5275 14.6537 3.60557 14.6537H7.02032C9.76714 14.6537 12.0687 12.3071 12.1497 9.42641C12.1901 7.95671 11.6841 6.5673 10.7242 5.51134C9.76426 4.45539 8.47758 3.87492 7.10416 3.87492H3.6287V9.87101C3.6287 9.9235 3.59111 9.96364 3.54196 9.96364H0.0867419C0.0375882 9.96364 0 9.9235 0 9.87101V0.0926239C0 0.0401348 0.0375882 0 0.0867419 0H7.10416C9.44331 0 11.6379 0.981851 13.2831 2.76647ZM23.1485 4.96788C18.9155 4.96788 16.9841 8.43216 16.9841 11.8161L16.9812 11.8192C16.9812 15.1785 19.1613 18.72 23.3943 18.72C26.4245 18.72 28.7781 16.9169 29.3158 14.101C29.3274 14.0423 29.2841 13.9867 29.2291 13.9867H26.0342C25.9966 13.9867 25.9647 14.0145 25.9531 14.0546C25.6611 15.1477 24.7532 15.7065 23.3943 15.7065C21.6624 15.7065 20.5491 14.5425 20.3004 12.6652H29.1828C29.2291 12.6652 29.2667 12.6313 29.2696 12.5819C29.2928 12.2978 29.3131 11.9304 29.3131 11.4734C29.3131 8.43216 27.3815 4.96788 23.1485 4.96788ZM23.1485 7.66335C24.8082 7.66335 25.7739 8.85207 25.8722 10.3341H20.3496C20.6474 8.48155 21.5901 7.66335 23.1485 7.66335ZM30.8224 11.8161C30.8224 8.43216 32.7538 4.96788 36.9867 4.96788C41.2197 4.96788 43.1513 8.43216 43.1513 11.4734C43.1513 11.9304 43.131 12.2978 43.1078 12.5819C43.105 12.6313 43.0673 12.6652 43.0211 12.6652H34.1388C34.3873 14.5425 35.5006 15.7065 37.2325 15.7065C38.5915 15.7065 39.4995 15.1477 39.7915 14.0546C39.8029 14.0145 39.8348 13.9867 39.8724 13.9867H43.0673C43.1223 13.9867 43.1656 14.0423 43.1542 14.101C42.6164 16.9169 40.2627 18.72 37.2325 18.72C32.9995 18.72 30.8195 15.1785 30.8195 11.8192L30.8224 11.8161ZM39.7104 10.3341C39.6121 8.85207 38.6464 7.66335 36.9867 7.66335C35.4283 7.66335 34.4856 8.48155 34.188 10.3341H39.7104ZM48.4223 5.18092H45.155V5.17474C45.1059 5.17474 45.0682 5.21489 45.0682 5.26738V23.8021C45.0682 23.8546 45.1059 23.8949 45.155 23.8949H48.4223C48.4713 23.8949 48.509 23.8546 48.509 23.8021V17.3121C49.1769 18.2106 50.3913 18.7138 51.8023 18.7138C55.3933 18.7138 57.8193 15.9905 57.8193 11.8409C57.8193 7.69113 55.59 4.96788 52.0741 4.96788C50.4636 4.96788 49.252 5.60392 48.509 6.63518V5.27354C48.509 5.22107 48.4713 5.18092 48.4223 5.18092ZM54.4017 11.8439C54.4017 14.0639 53.1902 15.546 51.357 15.546C49.5268 15.546 48.3124 14.0886 48.3124 11.8439C48.3124 9.59926 49.5268 8.11722 51.357 8.11722C53.1873 8.11722 54.4017 9.62397 54.4017 11.8439ZM62.8504 21.1068C62.9052 21.0482 62.9776 21.0172 63.0556 21.0172H66.5657C67.6297 21.0172 68.3729 20.1188 68.3729 18.9022V17.1578C67.728 18.1366 66.4154 18.7171 64.9552 18.7171C61.2658 18.7171 59.0626 15.9938 59.0626 11.844C59.0626 7.69429 61.2658 4.97105 64.9061 4.97105C66.4415 4.97105 67.6529 5.5793 68.3729 6.50558V5.27672C68.3729 5.22423 68.4104 5.18408 68.4596 5.18408H71.7269C71.776 5.18408 71.8137 5.22423 71.8137 5.27672V19.3036C71.8137 22.0546 69.9574 23.9042 67.1354 23.9042H60.5922C60.4621 23.9042 60.3984 23.7374 60.491 23.6417L62.8504 21.113V21.1068ZM65.5017 15.543C67.384 15.543 68.5724 14.0887 68.5724 11.8409C68.5724 9.59317 67.384 8.11421 65.5017 8.11421C63.6195 8.11421 62.4572 9.59625 62.4572 11.8409C62.4572 14.0856 63.6715 15.543 65.5017 15.543ZM77.7902 18.4113V12.0262H77.7931C77.7931 9.75061 78.5593 8.24386 80.2681 8.24386H82.2372C82.2863 8.24386 82.3239 8.20373 82.3239 8.15124V5.27052C82.3239 5.21803 82.2863 5.1779 82.2372 5.1779H80.936C79.4007 5.1779 78.458 5.73057 77.7902 7.39787V5.27052C77.7902 5.21803 77.7526 5.1779 77.7035 5.1779H74.4362C74.387 5.1779 74.3495 5.21803 74.3495 5.27052V18.4113C74.3495 18.4637 74.387 18.504 74.4362 18.504H77.7035C77.7526 18.504 77.7902 18.4637 77.7902 18.4113ZM83.4255 14.7247C83.4255 12.1065 85.2587 10.5194 88.0054 10.5194H90.0844C90.7031 10.5194 91.0242 10.0964 91.0242 9.54068C91.0242 8.42914 90.2319 7.66343 88.8209 7.66343C87.4099 7.66343 86.5598 8.61749 86.4961 9.69196C86.4961 9.74137 86.4586 9.77842 86.4123 9.77842H83.5181C83.4661 9.77842 83.4255 9.73211 83.4284 9.67654C83.599 7.05208 85.62 4.96487 88.9943 4.96487C92.1633 4.96487 94.4649 6.9224 94.4649 9.93589V18.4082C94.4649 18.4606 94.4273 18.5009 94.3782 18.5009H91.1109C91.0617 18.5009 91.0242 18.4606 91.0242 18.4082V16.6514C90.6019 17.8925 89.217 18.714 87.5082 18.714C85.1054 18.714 83.4226 16.9942 83.4226 14.7216L83.4255 14.7247ZM88.4016 16.0462C90.0612 16.0462 91.0269 14.7247 91.0269 13.0327V12.8475H88.526C87.462 12.8475 86.7419 13.536 86.7419 14.5673C86.7419 15.4411 87.4359 16.0493 88.4016 16.0493V16.0462ZM99.9181 5.18092H96.6508L96.6566 5.17784C96.6074 5.17784 96.5699 5.21799 96.5699 5.27046V18.4113C96.5699 18.4637 96.6074 18.5038 96.6566 18.5038H99.9238C99.973 18.5038 100.011 18.4637 100.011 18.4113V10.9424C100.011 9.22258 100.924 8.08634 102.361 8.08634C103.697 8.08634 104.565 9.22258 104.565 10.9424V18.4113C104.565 18.4637 104.602 18.5038 104.651 18.5038H107.919C107.968 18.5038 108.005 18.4637 108.005 18.4113V10.9424C108.005 9.22258 108.919 8.08634 110.356 8.08634C111.692 8.08634 112.559 9.22258 112.559 10.9424V18.4113C112.559 18.4637 112.597 18.5038 112.646 18.5038H115.913C115.962 18.5038 116 18.4637 116 18.4113V9.77834C116 7.11066 114.242 4.96788 111.544 4.96788C109.541 4.96788 107.979 6.10411 107.36 7.4009C106.765 5.81388 105.501 4.96788 103.547 4.96788C101.861 4.96788 100.673 5.84166 100.005 7.05818V5.27354C100.005 5.22107 99.9672 5.18092 99.9181 5.18092Z" fill="#FBFBFF"/>
</g>
<defs>
<clipPath id="clip0_193_8610">
<rect width="116" height="24" fill="white"/>
</clipPath>
</defs>
</svg>
