<svg width="11" height="14" viewBox="0 0 11 14" fill="none" xmlns="http://www.w3.org/2000/svg">
<path d="M6.11111 2.08099V4.26087H9.78078C10.4541 4.26087 11 4.80536 11 5.47465V12.7862C11 13.4566 10.4545 14 9.78078 14H1.21922C0.545864 14 0 13.4555 0 12.7862V5.47465C0 4.8043 0.545492 4.26087 1.21922 4.26087H4.88889V2.07902L4.19866 2.76652C3.96221 3.00203 3.57872 3.00191 3.33841 2.76255C3.09975 2.52484 3.10116 2.13803 3.33442 1.90569L5.07087 0.176101C5.18845 0.0589924 5.34237 0.000144273 5.49698 0L5.50164 0.00181717C5.65684 0.00214695 5.81116 0.0605766 5.92715 0.176101L7.6636 1.90569C7.90005 2.14121 7.89993 2.52318 7.65961 2.76255C7.42096 3.00026 7.03262 2.99885 6.79936 2.76652L6.11111 2.08099ZM4.88889 5.47826H1.22222V12.7826H9.77778V5.47826H6.11111V7.91395C6.11111 8.24962 5.83986 8.52174 5.5 8.52174C5.16249 8.52174 4.88889 8.24935 4.88889 7.91395V5.47826ZM3.05556 4.26087V5.47826H7.94444V4.26087H3.05556ZM4.88889 4.26087H6.11111V5.47826H4.88889V4.26087Z" fill="#BBBBBF"/>
</svg>
