<svg width="36" height="36" viewBox="0 0 36 36" fill="none" xmlns="http://www.w3.org/2000/svg">
<path d="M20.5951 5.26447L23.2351 10.5445C23.5951 11.2795 24.5551 11.9845 25.3651 12.1195L30.1501 12.9145C33.2101 13.4245 33.9301 15.6445 31.7251 17.8345L28.0051 21.5545C27.3751 22.1845 27.0301 23.3995 27.2251 24.2695L28.2901 28.8745C29.1301 32.5195 27.1951 33.9295 23.9701 32.0245L19.4851 29.3695C18.6751 28.8895 17.3401 28.8895 16.5151 29.3695L12.0301 32.0245C8.82011 33.9295 6.87011 32.5045 7.71011 28.8745L8.77511 24.2695C8.97011 23.3995 8.62511 22.1845 7.99511 21.5545L4.27511 17.8345C2.08511 15.6445 2.79011 13.4245 5.85011 12.9145L10.6351 12.1195C11.4301 11.9845 12.3901 11.2795 12.7501 10.5445L15.3901 5.26447C16.8301 2.39947 19.1701 2.39947 20.5951 5.26447Z" fill="#FEDF89" stroke="#4E4E52" stroke-width="1.5" stroke-linecap="round" stroke-linejoin="round"/>
</svg>
